<svg width="40" height="32" viewBox="0 0 40 32" fill="none" xmlns="http://www.w3.org/2000/svg">
<path d="M39.5568 31.1198C38.0627 31.0811 8.99976 30.5075 7.19609 30.2459C5.50681 30.001 4.6352 29.7477 4.1025 28.6882C3.57798 27.645 5.9317 24.6644 7.81267 21.5649C10.0196 17.9283 15.9599 10.085 17.1023 8.57055C18.4044 6.84435 20.0934 5.00213 22.1044 5.08359C24.4218 5.17743 25.7256 6.53303 27.8988 8.86703C28.637 9.65983 32.1662 13.5607 33.8713 15.1979C33.9332 15.2558 34.0111 15.2941 34.095 15.308C34.179 15.322 34.2652 15.3108 34.3427 15.276C34.3955 15.2549 34.4427 15.2219 34.4805 15.1796C34.5182 15.1374 34.5457 15.087 34.5605 15.0324C34.5754 14.9779 34.5773 14.9207 34.5661 14.8652C34.555 14.8098 34.531 14.7578 34.4961 14.7131C34.2402 14.3994 29.9854 7.17455 28.0327 4.57989C26.1589 2.09013 24.7774 0 21.6856 0C19.4072 0 18.3427 0.937669 16.7805 2.43628C14.7531 4.38126 3.25961 21.8625 2.01126 23.7715C-0.219646 27.1829 -0.430135 28.9954 0.577735 30.3402C0.978763 30.8753 2.40294 31.6944 6.67117 31.831C10.5747 31.956 20.8203 31.984 20.8203 31.984C27.6115 32.0606 38.9047 31.838 39.4993 31.82C40.0285 31.804 40.031 31.6388 40.0275 31.496C40.0247 31.3783 40.0874 31.1336 39.5568 31.1198Z" fill="url(#paint0_linear_2845_16988)"/>
<defs>
<linearGradient id="paint0_linear_2845_16988" x1="20.0143" y1="-0.337931" x2="20.0143" y2="31.6621" gradientUnits="userSpaceOnUse">
<stop stop-color="#FC907E"/>
<stop offset="0.99" stop-color="#9F6EED"/>
</linearGradient>
</defs>
</svg>
